<svg width="24" height="24" viewBox="0 0 24 24" fill="none" xmlns="http://www.w3.org/2000/svg">
<path id="cog" d="M2.13384 15.271L4.13384 18.731C4.26662 18.9605 4.48511 19.1279 4.74127 19.1963C4.99743 19.2648 5.27028 19.2287 5.49984 19.096L6.89584 18.29C7.47584 18.747 8.11684 19.122 8.79084 19.402V21C8.79084 21.2652 8.89619 21.5196 9.08373 21.7071C9.27127 21.8946 9.52562 22 9.79084 22H13.7908C14.0561 22 14.3104 21.8946 14.4979 21.7071C14.6855 21.5196 14.7908 21.2652 14.7908 21V19.402C15.4701 19.1192 16.1077 18.7451 16.6858 18.29L18.0818 19.096C18.5588 19.371 19.1728 19.206 19.4478 18.731L21.4478 15.271C21.5795 15.0412 21.6149 14.7687 21.5466 14.5129C21.4782 14.257 21.3115 14.0385 21.0828 13.905L19.7108 13.112C19.818 12.3745 19.8174 11.6253 19.7088 10.888L21.0808 10.095C21.5568 9.82 21.7218 9.205 21.4458 8.729L19.4458 5.269C19.3131 5.0395 19.0946 4.87212 18.8384 4.80367C18.5823 4.73523 18.3094 4.77131 18.0798 4.904L16.6838 5.71C16.1064 5.25438 15.4691 4.88022 14.7898 4.598V3C14.7898 2.73478 14.6845 2.48043 14.4969 2.29289C14.3094 2.10536 14.0551 2 13.7898 2H9.78984C9.52462 2 9.27027 2.10536 9.08273 2.29289C8.8952 2.48043 8.78984 2.73478 8.78984 3V4.598C8.11056 4.88081 7.47302 5.25492 6.89484 5.71L5.49984 4.904C5.38621 4.83817 5.26071 4.79539 5.13053 4.7781C5.00035 4.76082 4.86803 4.76937 4.74116 4.80327C4.61429 4.83717 4.49534 4.89576 4.39113 4.97567C4.28692 5.05559 4.19949 5.15526 4.13384 5.269L2.13384 8.729C2.00223 8.9588 1.96674 9.2313 2.0351 9.48715C2.10346 9.74299 2.27014 9.96147 2.49884 10.095L3.87084 10.888C3.76297 11.6254 3.76297 12.3746 3.87084 13.112L2.49884 13.905C2.02284 14.18 1.85784 14.795 2.13384 15.271V15.271ZM11.7898 8C13.9958 8 15.7898 9.794 15.7898 12C15.7898 14.206 13.9958 16 11.7898 16C9.58384 16 7.78984 14.206 7.78984 12C7.78984 9.794 9.58384 8 11.7898 8Z" fill="#050505"/>
</svg>
