<svg width="357" height="123" viewBox="0 0 357 123" fill="none" xmlns="http://www.w3.org/2000/svg">
<path d="M127.607 49.9688H138.74V87.375C138.74 90.8138 137.973 93.8568 136.439 96.5039C134.93 99.1263 132.79 101.155 130.02 102.59C127.249 104.025 124.119 104.742 120.631 104.742C114.916 104.742 110.463 103.295 107.271 100.4C104.08 97.4811 102.484 93.362 102.484 88.043H113.691C113.691 90.6901 114.248 92.6445 115.361 93.9063C116.475 95.168 118.231 95.7988 120.631 95.7988C122.758 95.7988 124.453 95.069 125.715 93.6094C126.977 92.1497 127.607 90.0716 127.607 87.375V49.9688ZM187.999 82.3281L182.21 88.5625V104H171.077V49.9688H182.21V74.4609L187.109 67.7441L200.876 49.9688H214.57L195.384 73.9785L215.126 104H201.878L187.999 82.3281ZM253.252 84.9629V104H242.12V49.9688H263.198C267.255 49.9688 270.817 50.7109 273.885 52.1953C276.978 53.6797 279.353 55.7949 281.01 58.541C282.668 61.2624 283.496 64.3672 283.496 67.8555C283.496 73.1497 281.678 77.3307 278.041 80.3984C274.429 83.4414 269.42 84.9629 263.012 84.9629H253.252ZM253.252 75.9453H263.198C266.142 75.9453 268.381 75.2526 269.914 73.8672C271.473 72.4818 272.252 70.5026 272.252 67.9297C272.252 65.2826 271.473 63.1426 269.914 61.5098C268.356 59.877 266.204 59.0358 263.457 58.9863H253.252V75.9453ZM354.65 58.9863H338.099V104H326.966V58.9863H310.638V49.9688H354.65V58.9863Z" fill="#FF9000"/>
<rect x="9.27742" y="70.9436" width="18.3008" height="55.591" rx="4" transform="rotate(-50.3842 9.27742 70.9436)" fill="#FF9000"/>
<rect x="7.7663" y="88.0851" width="11.2166" height="36.059" rx="3" transform="rotate(-50.3842 7.7663 88.0851)" fill="#FF9000"/>
<rect width="18.3008" height="55.591" rx="4" transform="matrix(-0.637636 0.770337 0.770337 0.637636 58.9658 10.9144)" fill="#FF9000"/>
<rect width="11.2166" height="36.059" rx="3" transform="matrix(-0.637636 0.770337 0.770337 0.637636 75.5231 6.22715)" fill="#FF9000"/>
<rect x="37.875" y="67.0263" width="35.4208" height="16.5271" transform="rotate(-50.3842 37.875 67.0263)" fill="#FF9000"/>
</svg>
