<svg width="24" height="24" viewBox="0 0 24 24" fill="none" xmlns="http://www.w3.org/2000/svg">
<g clip-path="url(#clip0)">
<path d="M14.82 10.3087C12.4222 11.5387 9.738 9.24599 10.5742 6.68399C11.4142 4.12124 14.934 3.85874 16.1415 6.26999C16.321 6.62194 16.4291 7.00586 16.4599 7.39973C16.4906 7.79359 16.4432 8.18965 16.3205 8.56517C16.1978 8.94069 16.0022 9.28828 15.7448 9.588C15.4874 9.88773 15.1734 10.1337 14.8207 10.3117L14.82 10.3087ZM11.6017 0.569994C14.07 -0.327756 16.8945 -0.281256 19.008 1.55474C19.4546 1.92252 19.8056 2.39291 20.031 2.92574C20.2417 3.61274 19.281 2.85449 19.152 2.75774C18.4844 2.30166 17.7613 1.93268 17.0002 1.65974C12.8362 0.386994 8.898 2.70674 6.465 6.31574C5.47262 7.90699 4.71482 9.63299 4.215 11.4405C4.16829 11.6625 4.09763 11.8788 4.00425 12.0855C3.8955 12.2887 3.95325 11.5342 3.95325 11.5117C4.04325 10.758 4.188 10.008 4.383 9.27299C5.51175 5.33999 8.01225 2.06624 11.6017 0.566244V0.569994ZM11.637 21.5662V12.801C11.8867 12.828 12.1207 12.84 12.3712 12.84C13.5082 12.8437 14.6212 12.531 15.594 11.9452V21.5625C15.594 22.3875 15.441 22.9927 15.0697 23.3917C14.887 23.5925 14.6627 23.7509 14.4124 23.8561C14.1622 23.9613 13.892 24.0106 13.6207 24.0007C13.3523 24.0104 13.0849 23.9609 12.8377 23.8557C12.5906 23.7504 12.3696 23.592 12.1905 23.3917C11.8237 22.989 11.6325 22.38 11.6325 21.567L11.637 21.5662Z" fill="#050505"/>
</g>
<defs>
<clipPath id="clip0">
<rect width="24" height="24" fill="white"/>
</clipPath>
</defs>
</svg>
